<mxfile host="app.diagrams.net" agent="Mozilla/5.0 (Windows NT 10.0; Win64; x64) AppleWebKit/537.36 (KHTML, like Gecko) Chrome/131.0.0.0 Safari/537.36" version="26.0.6">
  <diagram name="Page-1" id="2YBvvXClWsGukQMizWep">
    <mxGraphModel dx="1793" dy="933" grid="1" gridSize="10" guides="1" tooltips="1" connect="1" arrows="1" fold="1" page="1" pageScale="1" pageWidth="850" pageHeight="1100" math="0" shadow="0">
      <root>
        <mxCell id="0" />
        <mxCell id="1" parent="0" />
        <mxCell id="DcK7qfO0fMDPadU4-bJH-3" value="" style="edgeStyle=orthogonalEdgeStyle;rounded=0;orthogonalLoop=1;jettySize=auto;html=1;endArrow=none;endFill=0;fontSize=13;" edge="1" parent="1">
          <mxGeometry relative="1" as="geometry">
            <mxPoint x="180" y="120" as="sourcePoint" />
            <mxPoint x="180" y="760" as="targetPoint" />
            <Array as="points">
              <mxPoint x="180" y="120" />
              <mxPoint x="180" y="640" />
            </Array>
          </mxGeometry>
        </mxCell>
        <mxCell id="DcK7qfO0fMDPadU4-bJH-1" value="Пользователь" style="shape=umlActor;verticalLabelPosition=bottom;verticalAlign=top;html=1;outlineConnect=0;fontSize=13;" vertex="1" parent="1">
          <mxGeometry x="170" y="40" width="30" height="60" as="geometry" />
        </mxCell>
        <mxCell id="DcK7qfO0fMDPadU4-bJH-2" value="Пользователь" style="shape=umlActor;verticalLabelPosition=top;verticalAlign=bottom;html=1;outlineConnect=0;labelPosition=center;align=center;fontSize=13;" vertex="1" parent="1">
          <mxGeometry x="170" y="780" width="30" height="60" as="geometry" />
        </mxCell>
        <mxCell id="DcK7qfO0fMDPadU4-bJH-4" value="App" style="rounded=0;whiteSpace=wrap;html=1;fontSize=13;" vertex="1" parent="1">
          <mxGeometry x="320" y="80" width="60" height="40" as="geometry" />
        </mxCell>
        <mxCell id="DcK7qfO0fMDPadU4-bJH-5" value="App" style="rounded=0;whiteSpace=wrap;html=1;fontSize=13;" vertex="1" parent="1">
          <mxGeometry x="320" y="760" width="60" height="40" as="geometry" />
        </mxCell>
        <mxCell id="DcK7qfO0fMDPadU4-bJH-7" value="StudentsListView" style="rounded=0;whiteSpace=wrap;html=1;fontSize=13;" vertex="1" parent="1">
          <mxGeometry x="450" y="80" width="120" height="40" as="geometry" />
        </mxCell>
        <mxCell id="DcK7qfO0fMDPadU4-bJH-8" value="StudentsListView" style="rounded=0;whiteSpace=wrap;html=1;fontSize=13;" vertex="1" parent="1">
          <mxGeometry x="450" y="760" width="120" height="40" as="geometry" />
        </mxCell>
        <mxCell id="DcK7qfO0fMDPadU4-bJH-11" value="StudentsListController" style="rounded=0;whiteSpace=wrap;html=1;fontSize=13;" vertex="1" parent="1">
          <mxGeometry x="630" y="760" width="140" height="40" as="geometry" />
        </mxCell>
        <mxCell id="DcK7qfO0fMDPadU4-bJH-15" value="StudentsListController" style="rounded=0;whiteSpace=wrap;html=1;fontSize=13;" vertex="1" parent="1">
          <mxGeometry x="630" y="80" width="140" height="40" as="geometry" />
        </mxCell>
        <mxCell id="DcK7qfO0fMDPadU4-bJH-19" value="StudentsList" style="rounded=0;whiteSpace=wrap;html=1;fontSize=13;" vertex="1" parent="1">
          <mxGeometry x="830" y="80" width="100" height="40" as="geometry" />
        </mxCell>
        <mxCell id="DcK7qfO0fMDPadU4-bJH-20" value="StudentsList" style="rounded=0;whiteSpace=wrap;html=1;fontSize=13;" vertex="1" parent="1">
          <mxGeometry x="830" y="760" width="100" height="40" as="geometry" />
        </mxCell>
        <mxCell id="DcK7qfO0fMDPadU4-bJH-22" value="DataListStudentShort" style="rounded=0;whiteSpace=wrap;html=1;fontSize=13;" vertex="1" parent="1">
          <mxGeometry x="990" y="80" width="140" height="40" as="geometry" />
        </mxCell>
        <mxCell id="DcK7qfO0fMDPadU4-bJH-23" value="DataListStudentShort" style="rounded=0;whiteSpace=wrap;html=1;fontSize=13;" vertex="1" parent="1">
          <mxGeometry x="990" y="760" width="140" height="40" as="geometry" />
        </mxCell>
        <mxCell id="DcK7qfO0fMDPadU4-bJH-25" value="" style="endArrow=classic;html=1;rounded=0;endSize=8;fontSize=13;" edge="1" parent="1">
          <mxGeometry width="50" height="50" relative="1" as="geometry">
            <mxPoint x="180" y="160" as="sourcePoint" />
            <mxPoint x="350" y="160" as="targetPoint" />
          </mxGeometry>
        </mxCell>
        <mxCell id="DcK7qfO0fMDPadU4-bJH-43" value="Запуск программы" style="edgeLabel;html=1;align=center;verticalAlign=middle;resizable=0;points=[];fontSize=11;" vertex="1" connectable="0" parent="DcK7qfO0fMDPadU4-bJH-25">
          <mxGeometry x="-0.3567" y="-2" relative="1" as="geometry">
            <mxPoint x="25" y="-12" as="offset" />
          </mxGeometry>
        </mxCell>
        <mxCell id="DcK7qfO0fMDPadU4-bJH-26" value="" style="endArrow=classic;html=1;rounded=0;endSize=8;fontSize=11;" edge="1" parent="1">
          <mxGeometry width="50" height="50" relative="1" as="geometry">
            <mxPoint x="350" y="190" as="sourcePoint" />
            <mxPoint x="510" y="190" as="targetPoint" />
          </mxGeometry>
        </mxCell>
        <mxCell id="DcK7qfO0fMDPadU4-bJH-44" value="new StudentsListView()" style="edgeLabel;html=1;align=center;verticalAlign=middle;resizable=0;points=[];fontSize=11;" vertex="1" connectable="0" parent="DcK7qfO0fMDPadU4-bJH-26">
          <mxGeometry x="-0.5202" relative="1" as="geometry">
            <mxPoint x="37" y="-10" as="offset" />
          </mxGeometry>
        </mxCell>
        <mxCell id="DcK7qfO0fMDPadU4-bJH-27" value="" style="endArrow=classic;html=1;rounded=0;endSize=8;fontSize=11;" edge="1" parent="1">
          <mxGeometry width="50" height="50" relative="1" as="geometry">
            <mxPoint x="350" y="240" as="sourcePoint" />
            <mxPoint x="700" y="240" as="targetPoint" />
          </mxGeometry>
        </mxCell>
        <mxCell id="DcK7qfO0fMDPadU4-bJH-28" value="" style="endArrow=classic;html=1;rounded=0;endSize=8;fontSize=11;" edge="1" parent="1">
          <mxGeometry width="50" height="50" relative="1" as="geometry">
            <mxPoint x="700" y="270" as="sourcePoint" />
            <mxPoint x="880" y="270" as="targetPoint" />
          </mxGeometry>
        </mxCell>
        <mxCell id="DcK7qfO0fMDPadU4-bJH-60" value="new StudentsList(filepath, strategy)" style="edgeLabel;html=1;align=center;verticalAlign=middle;resizable=0;points=[];fontSize=11;" vertex="1" connectable="0" parent="DcK7qfO0fMDPadU4-bJH-28">
          <mxGeometry x="-0.3857" y="2" relative="1" as="geometry">
            <mxPoint x="34" y="-8" as="offset" />
          </mxGeometry>
        </mxCell>
        <mxCell id="DcK7qfO0fMDPadU4-bJH-29" value="" style="endArrow=classic;html=1;rounded=0;endSize=8;fontSize=11;" edge="1" parent="1">
          <mxGeometry width="50" height="50" relative="1" as="geometry">
            <mxPoint x="700" y="360" as="sourcePoint" />
            <mxPoint x="880" y="360" as="targetPoint" />
          </mxGeometry>
        </mxCell>
        <mxCell id="DcK7qfO0fMDPadU4-bJH-64" value="read()" style="edgeLabel;html=1;align=center;verticalAlign=middle;resizable=0;points=[];fontSize=11;" vertex="1" connectable="0" parent="DcK7qfO0fMDPadU4-bJH-29">
          <mxGeometry x="-0.2963" y="2" relative="1" as="geometry">
            <mxPoint x="-13" y="-8" as="offset" />
          </mxGeometry>
        </mxCell>
        <mxCell id="DcK7qfO0fMDPadU4-bJH-31" value="" style="endArrow=none;html=1;rounded=0;endSize=8;endFill=0;startArrow=classic;startFill=1;fontSize=11;" edge="1" parent="1">
          <mxGeometry width="50" height="50" relative="1" as="geometry">
            <mxPoint x="700" y="400" as="sourcePoint" />
            <mxPoint x="880" y="400" as="targetPoint" />
          </mxGeometry>
        </mxCell>
        <mxCell id="DcK7qfO0fMDPadU4-bJH-65" value="students[]" style="edgeLabel;html=1;align=center;verticalAlign=middle;resizable=0;points=[];fontSize=11;" vertex="1" connectable="0" parent="DcK7qfO0fMDPadU4-bJH-31">
          <mxGeometry x="-0.4815" y="-1" relative="1" as="geometry">
            <mxPoint x="3" y="-11" as="offset" />
          </mxGeometry>
        </mxCell>
        <mxCell id="DcK7qfO0fMDPadU4-bJH-32" value="" style="endArrow=classic;html=1;rounded=0;endSize=8;fontSize=11;" edge="1" parent="1">
          <mxGeometry width="50" height="50" relative="1" as="geometry">
            <mxPoint x="700" y="430" as="sourcePoint" />
            <mxPoint x="700" y="450" as="targetPoint" />
            <Array as="points">
              <mxPoint x="770" y="430" />
              <mxPoint x="770" y="450" />
              <mxPoint x="730" y="450" />
            </Array>
          </mxGeometry>
        </mxCell>
        <mxCell id="DcK7qfO0fMDPadU4-bJH-66" value="refresh_data()" style="edgeLabel;html=1;align=center;verticalAlign=middle;resizable=0;points=[];fontSize=11;" vertex="1" connectable="0" parent="DcK7qfO0fMDPadU4-bJH-32">
          <mxGeometry x="-0.5625" y="2" relative="1" as="geometry">
            <mxPoint x="25" y="-8" as="offset" />
          </mxGeometry>
        </mxCell>
        <mxCell id="DcK7qfO0fMDPadU4-bJH-35" value="" style="endArrow=classic;html=1;rounded=0;endSize=8;fontSize=11;" edge="1" parent="1">
          <mxGeometry width="50" height="50" relative="1" as="geometry">
            <mxPoint x="700" y="590" as="sourcePoint" />
            <mxPoint x="880" y="590" as="targetPoint" />
          </mxGeometry>
        </mxCell>
        <mxCell id="DcK7qfO0fMDPadU4-bJH-69" value="get_k_n_student_short_list(k, n)" style="edgeLabel;html=1;align=center;verticalAlign=middle;resizable=0;points=[];fontSize=11;" vertex="1" connectable="0" parent="DcK7qfO0fMDPadU4-bJH-35">
          <mxGeometry x="0.3333" y="2" relative="1" as="geometry">
            <mxPoint x="-30" y="-8" as="offset" />
          </mxGeometry>
        </mxCell>
        <mxCell id="DcK7qfO0fMDPadU4-bJH-38" value="" style="endArrow=classic;html=1;rounded=0;endSize=8;fontSize=11;" edge="1" parent="1">
          <mxGeometry width="50" height="50" relative="1" as="geometry">
            <mxPoint x="700" y="480" as="sourcePoint" />
            <mxPoint x="700" y="500" as="targetPoint" />
            <Array as="points">
              <mxPoint x="770" y="480" />
              <mxPoint x="770" y="500" />
              <mxPoint x="730" y="500" />
            </Array>
          </mxGeometry>
        </mxCell>
        <mxCell id="DcK7qfO0fMDPadU4-bJH-67" value="collect_filters()" style="edgeLabel;html=1;align=center;verticalAlign=middle;resizable=0;points=[];fontSize=11;" vertex="1" connectable="0" parent="DcK7qfO0fMDPadU4-bJH-38">
          <mxGeometry x="-0.3021" y="3" relative="1" as="geometry">
            <mxPoint x="4" y="-7" as="offset" />
          </mxGeometry>
        </mxCell>
        <mxCell id="DcK7qfO0fMDPadU4-bJH-39" value="" style="endArrow=classic;html=1;rounded=0;endSize=8;fontSize=11;" edge="1" parent="1">
          <mxGeometry width="50" height="50" relative="1" as="geometry">
            <mxPoint x="700" y="530" as="sourcePoint" />
            <mxPoint x="700" y="550" as="targetPoint" />
            <Array as="points">
              <mxPoint x="770" y="530" />
              <mxPoint x="770" y="550" />
              <mxPoint x="730" y="550" />
            </Array>
          </mxGeometry>
        </mxCell>
        <mxCell id="DcK7qfO0fMDPadU4-bJH-68" value="apply_filters(students, filters)" style="edgeLabel;html=1;align=center;verticalAlign=middle;resizable=0;points=[];fontSize=11;" vertex="1" connectable="0" parent="DcK7qfO0fMDPadU4-bJH-39">
          <mxGeometry x="-0.4375" y="2" relative="1" as="geometry">
            <mxPoint x="45" y="-8" as="offset" />
          </mxGeometry>
        </mxCell>
        <mxCell id="DcK7qfO0fMDPadU4-bJH-40" value="" style="endArrow=classic;html=1;rounded=0;endSize=8;fontSize=11;" edge="1" parent="1">
          <mxGeometry width="50" height="50" relative="1" as="geometry">
            <mxPoint x="700" y="300" as="sourcePoint" />
            <mxPoint x="700" y="320" as="targetPoint" />
            <Array as="points">
              <mxPoint x="770" y="300" />
              <mxPoint x="770" y="320" />
              <mxPoint x="730" y="320" />
            </Array>
          </mxGeometry>
        </mxCell>
        <mxCell id="DcK7qfO0fMDPadU4-bJH-61" value="load_data()" style="edgeLabel;html=1;align=center;verticalAlign=middle;resizable=0;points=[];fontSize=11;" vertex="1" connectable="0" parent="DcK7qfO0fMDPadU4-bJH-40">
          <mxGeometry x="-0.0354" y="-2" relative="1" as="geometry">
            <mxPoint x="-8" y="-17" as="offset" />
          </mxGeometry>
        </mxCell>
        <mxCell id="DcK7qfO0fMDPadU4-bJH-50" value="" style="endArrow=none;html=1;rounded=0;entryX=0.5;entryY=1;entryDx=0;entryDy=0;fontSize=13;exitX=0.5;exitY=0;exitDx=0;exitDy=0;" edge="1" parent="1" source="DcK7qfO0fMDPadU4-bJH-8" target="DcK7qfO0fMDPadU4-bJH-7">
          <mxGeometry width="50" height="50" relative="1" as="geometry">
            <mxPoint x="510" y="720" as="sourcePoint" />
            <mxPoint x="560" y="670" as="targetPoint" />
          </mxGeometry>
        </mxCell>
        <mxCell id="DcK7qfO0fMDPadU4-bJH-45" value="new StudentsListController(View)" style="edgeLabel;html=1;align=center;verticalAlign=middle;resizable=0;points=[];fontSize=11;" vertex="1" connectable="0" parent="1">
          <mxGeometry x="450.00260869565227" y="230" as="geometry" />
        </mxCell>
        <mxCell id="DcK7qfO0fMDPadU4-bJH-52" value="" style="endArrow=none;html=1;rounded=0;exitX=0.5;exitY=0;exitDx=0;exitDy=0;fontSize=13;" edge="1" parent="1" source="DcK7qfO0fMDPadU4-bJH-11">
          <mxGeometry width="50" height="50" relative="1" as="geometry">
            <mxPoint x="650" y="170" as="sourcePoint" />
            <mxPoint x="700" y="120" as="targetPoint" />
          </mxGeometry>
        </mxCell>
        <mxCell id="DcK7qfO0fMDPadU4-bJH-53" value="" style="endArrow=none;html=1;rounded=0;exitX=0.5;exitY=0;exitDx=0;exitDy=0;fontSize=13;" edge="1" parent="1" source="DcK7qfO0fMDPadU4-bJH-20">
          <mxGeometry width="50" height="50" relative="1" as="geometry">
            <mxPoint x="830" y="170" as="sourcePoint" />
            <mxPoint x="880" y="120" as="targetPoint" />
          </mxGeometry>
        </mxCell>
        <mxCell id="DcK7qfO0fMDPadU4-bJH-54" value="" style="endArrow=none;html=1;rounded=0;exitX=0.5;exitY=0;exitDx=0;exitDy=0;fontSize=13;" edge="1" parent="1" source="DcK7qfO0fMDPadU4-bJH-23">
          <mxGeometry width="50" height="50" relative="1" as="geometry">
            <mxPoint x="1059.47" y="720" as="sourcePoint" />
            <mxPoint x="1059.47" y="120" as="targetPoint" />
          </mxGeometry>
        </mxCell>
        <mxCell id="DcK7qfO0fMDPadU4-bJH-55" value="" style="endArrow=classic;html=1;rounded=0;endSize=8;fontSize=11;" edge="1" parent="1">
          <mxGeometry width="50" height="50" relative="1" as="geometry">
            <mxPoint x="880" y="620" as="sourcePoint" />
            <mxPoint x="1060" y="620" as="targetPoint" />
          </mxGeometry>
        </mxCell>
        <mxCell id="DcK7qfO0fMDPadU4-bJH-70" value="new DataListStudentShort(students)" style="edgeLabel;html=1;align=center;verticalAlign=middle;resizable=0;points=[];fontSize=11;" vertex="1" connectable="0" parent="DcK7qfO0fMDPadU4-bJH-55">
          <mxGeometry x="-0.4815" y="2" relative="1" as="geometry">
            <mxPoint x="43" y="-8" as="offset" />
          </mxGeometry>
        </mxCell>
        <mxCell id="DcK7qfO0fMDPadU4-bJH-56" value="" style="endArrow=classic;html=1;rounded=0;endSize=8;fontSize=11;" edge="1" parent="1">
          <mxGeometry width="50" height="50" relative="1" as="geometry">
            <mxPoint x="700" y="660" as="sourcePoint" />
            <mxPoint x="1060" y="660" as="targetPoint" />
          </mxGeometry>
        </mxCell>
        <mxCell id="DcK7qfO0fMDPadU4-bJH-71" value="notify()" style="edgeLabel;html=1;align=center;verticalAlign=middle;resizable=0;points=[];fontSize=11;" vertex="1" connectable="0" parent="DcK7qfO0fMDPadU4-bJH-56">
          <mxGeometry x="-0.7963" y="-1" relative="1" as="geometry">
            <mxPoint x="-7" y="-11" as="offset" />
          </mxGeometry>
        </mxCell>
        <mxCell id="DcK7qfO0fMDPadU4-bJH-57" value="" style="endArrow=none;html=1;rounded=0;endSize=8;endFill=0;startArrow=classic;startFill=1;fontSize=11;" edge="1" parent="1">
          <mxGeometry width="50" height="50" relative="1" as="geometry">
            <mxPoint x="510" y="700" as="sourcePoint" />
            <mxPoint x="1060" y="700" as="targetPoint" />
          </mxGeometry>
        </mxCell>
        <mxCell id="DcK7qfO0fMDPadU4-bJH-72" value="set_table_params(get_columns(), size())" style="edgeLabel;html=1;align=center;verticalAlign=middle;resizable=0;points=[];fontSize=11;" vertex="1" connectable="0" parent="DcK7qfO0fMDPadU4-bJH-57">
          <mxGeometry x="-0.803" relative="1" as="geometry">
            <mxPoint x="86" y="-10" as="offset" />
          </mxGeometry>
        </mxCell>
        <mxCell id="DcK7qfO0fMDPadU4-bJH-58" value="" style="endArrow=none;html=1;rounded=0;endSize=8;endFill=0;startArrow=classic;startFill=1;fontSize=11;" edge="1" parent="1">
          <mxGeometry width="50" height="50" relative="1" as="geometry">
            <mxPoint x="510" y="730" as="sourcePoint" />
            <mxPoint x="1060" y="730" as="targetPoint" />
          </mxGeometry>
        </mxCell>
        <mxCell id="DcK7qfO0fMDPadU4-bJH-73" value="set_table_data(build_table())" style="edgeLabel;html=1;align=center;verticalAlign=middle;resizable=0;points=[];fontSize=11;" vertex="1" connectable="0" parent="DcK7qfO0fMDPadU4-bJH-58">
          <mxGeometry x="-0.7" relative="1" as="geometry">
            <mxPoint x="28" y="-10" as="offset" />
          </mxGeometry>
        </mxCell>
        <mxCell id="DcK7qfO0fMDPadU4-bJH-59" value="" style="endArrow=none;html=1;rounded=0;entryX=0.5;entryY=1;entryDx=0;entryDy=0;fontSize=13;exitX=0.5;exitY=0;exitDx=0;exitDy=0;" edge="1" parent="1" source="DcK7qfO0fMDPadU4-bJH-5">
          <mxGeometry width="50" height="50" relative="1" as="geometry">
            <mxPoint x="350" y="750" as="sourcePoint" />
            <mxPoint x="350" y="120" as="targetPoint" />
          </mxGeometry>
        </mxCell>
      </root>
    </mxGraphModel>
  </diagram>
</mxfile>
